<?xml version="1.0" encoding="utf-8"?>
<!-- Generator: Adobe Illustrator 22.1.0, SVG Export Plug-In . SVG Version: 6.00 Build 0)  -->
<svg version="1.1" id="Layer_1" xmlns="http://www.w3.org/2000/svg" xmlns:xlink="http://www.w3.org/1999/xlink" x="0px" y="0px"
	 viewBox="0 0 29 36" style="enable-background:new 0 0 29 36;" xml:space="preserve">
<style type="text/css">
	.st0{clip-path:url(#SVGID_2_);}
	.st1{fill:#1C6FB2;}
</style>
<g>
	<g>
		<defs>
			<rect id="SVGID_1_" x="0.3" width="28.2" height="36"/>
		</defs>
		<clipPath id="SVGID_2_">
			<use xlink:href="#SVGID_1_"  style="overflow:visible;"/>
		</clipPath>
		<g class="st0">
			<path class="st1" d="M28.4,19.7L21.1,10l7.2-9.9h-28v35.7h4.4V20.2c0-0.1-0.1-0.3-0.2-0.4s-0.3-0.2-0.4-0.2H3.4
				c-0.5,0-1-0.2-1.3-0.6c-0.4-0.4-0.5-0.8-0.5-1.4s0.2-1,0.5-1.4c0.4-0.4,0.8-0.6,1.3-0.6h0.8c0.2,0,0.3-0.1,0.4-0.2
				c0.1-0.1,0.2-0.3,0.2-0.4V6.2c0-0.1-0.1-0.3-0.2-0.4C4.4,5.6,4.3,5.5,4.1,5.5H3.4C2.8,5.5,2.4,5.3,2,5C1.7,4.6,1.5,4.1,1.5,3.6
				c0-0.6,0.2-1,0.5-1.4c0.4-0.4,0.8-0.6,1.3-0.6s0.9,0.2,1.3,0.6C5,2.5,5.2,3,5.2,3.6v0.3c0,0.1,0.1,0.3,0.2,0.4s0.3,0.2,0.4,0.2
				h14.4L16.1,10l4.1,5.6H6c-0.6,0-1.1,0.2-1.4,0.6C4.2,16.6,4,17.1,4,17.7s0.2,1,0.6,1.4s0.9,0.6,1.4,0.6H28.4L28.4,19.7z"/>
		</g>
	</g>
</g>
</svg>
